<?xml version="1.0" encoding="utf-8"?>
<!-- Generator: Adobe Illustrator 16.0.3, SVG Export Plug-In . SVG Version: 6.00 Build 0)  -->
<!DOCTYPE svg PUBLIC "-//W3C//DTD SVG 1.1//EN" "http://www.w3.org/Graphics/SVG/1.1/DTD/svg11.dtd">
<svg version="1.1" id="Layer_1" xmlns="http://www.w3.org/2000/svg" xmlns:xlink="http://www.w3.org/1999/xlink" x="0px" y="0px"
	 width="40px" height="80px" viewBox="0 0 40 80" enable-background="new 0 0 40 80" xml:space="preserve">
<g>
	<path fill="#E1FF19" d="M19.702,31.413c0.461,0.332,1.133,0.163,1.515-0.195c2.833-2.657,4.555-6.175,6.862-9.253
		c0.969-1.291-1.204-2.535-2.158-1.262c-1.681,2.241-3.034,4.733-4.789,6.908c0.048-6.096,0.43-13.234,0.451-19.257
		c0.006-1.613-2.494-1.612-2.5,0c-0.023,6.1-0.295,12.83-0.33,18.955c-1.803-1.876-3.234-4.11-4.674-6.274
		c-0.888-1.335-3.054-0.085-2.158,1.262C14.159,25.662,16.379,29.021,19.702,31.413z"/>
	<path fill="#E1FF19" d="M26.491,60.991c-1.708,2.104-3.448,4.182-5.192,6.256c0.451-5.975-0.325-11.961,0.284-17.935
		c0.164-1.604-2.338-1.588-2.5,0c-0.603,5.908,0.149,11.83-0.271,17.739c-1.635-1.755-3.119-3.629-4.482-5.641
		c-0.898-1.326-3.065-0.077-2.158,1.262c2.119,3.128,4.475,6.003,7.278,8.545c0.47,0.427,1.314,0.54,1.768,0
		c2.359-2.81,4.73-5.608,7.042-8.459C29.266,61.52,27.507,59.738,26.491,60.991z"/>
	<path fill="#E1FF19" d="M20.015,39.562c11.739,0,19.625-7.768,19.625-19.329c0-11.372-8.254-19.625-19.625-19.625
		C8.276,0.608,0.39,8.495,0.39,20.233C0.39,31.072,9.01,39.562,20.015,39.562z M20.015,2.608c10.377,0,17.625,7.248,17.625,17.625
		c0,11.971-8.852,17.329-17.625,17.329c-9.883,0-17.625-7.612-17.625-17.329C2.39,8.058,11.242,2.608,20.015,2.608z"/>
	<path fill="#E1FF19" d="M19.638,41.312c-5.896,0-10.721,1.762-13.951,5.095c-3.155,3.256-4.665,7.798-4.486,13.501
		c0.373,11.908,6.921,18.467,18.447,18.468c0.086,0.003,0.287,0.01,0.583,0.01c3.189,0,19.097-0.882,19.097-18.277
		C39.327,47.637,32.703,41.312,19.638,41.312z M29.993,74.039c-3.86,2.117-8.113,2.347-9.763,2.347
		c-0.262,0-0.439-0.007-0.592-0.011c-10.415,0-16.099-5.716-16.438-16.529C3.039,54.704,4.358,50.651,7.123,47.8
		c2.845-2.936,7.173-4.487,12.515-4.487c12.068,0,17.689,5.337,17.689,16.796C37.327,66.684,34.859,71.37,29.993,74.039z"/>
</g>
</svg>
