<?xml version="1.0" encoding="utf-8"?>
<!-- Generator: Adobe Illustrator 16.0.3, SVG Export Plug-In . SVG Version: 6.00 Build 0)  -->
<!DOCTYPE svg PUBLIC "-//W3C//DTD SVG 1.1//EN" "http://www.w3.org/Graphics/SVG/1.1/DTD/svg11.dtd">
<svg version="1.1" id="Layer_1" xmlns="http://www.w3.org/2000/svg" xmlns:xlink="http://www.w3.org/1999/xlink" x="0px" y="0px"
	 width="40px" height="80px" viewBox="0 0 40 80" enable-background="new 0 0 40 80" xml:space="preserve">
<g>
	<g>
		<g>
			<path fill="#DBE129" d="M19.083,9.667c-0.024,6.224-0.308,12.443-0.333,18.667c-0.006,1.612,2.493,1.612,2.5,0
				c0.025-6.225,0.31-12.443,0.333-18.667C21.589,8.054,19.089,8.055,19.083,9.667L19.083,9.667z"/>
		</g>
	</g>
	<g>
		<g>
			<path fill="#DBE129" d="M11.921,22.297c2.238,3.365,4.458,6.724,7.781,9.116c0.461,0.332,1.133,0.163,1.515-0.195
				c2.833-2.657,4.555-6.175,6.862-9.253c0.969-1.291-1.204-2.535-2.158-1.262c-2.179,2.905-3.8,6.24-6.472,8.747
				c0.505-0.065,1.01-0.131,1.515-0.195c-2.948-2.123-4.903-5.241-6.885-8.22C13.191,19.7,11.025,20.95,11.921,22.297L11.921,22.297
				z"/>
		</g>
	</g>
</g>
<g>
	<g>
		<g>
			<path fill="#DBE129" d="M19.083,49.666c-0.635,6.218,0.248,12.45-0.333,18.668c-0.15,1.605,2.352,1.591,2.5,0
				c0.58-6.218-0.302-12.45,0.333-18.668C21.747,48.062,19.245,48.078,19.083,49.666L19.083,49.666z"/>
		</g>
	</g>
	<g>
		<g>
			<path fill="#DBE129" d="M12.171,62.673c2.119,3.128,4.475,6.003,7.278,8.545c0.47,0.427,1.314,0.54,1.768,0
				c2.359-2.81,4.73-5.609,7.042-8.459c1.006-1.24-0.752-3.021-1.768-1.768c-2.312,2.85-4.683,5.648-7.042,8.459
				c0.589,0,1.178,0,1.768,0c-2.647-2.4-4.884-5.082-6.888-8.039C13.431,60.085,11.264,61.334,12.171,62.673L12.171,62.673z"/>
		</g>
	</g>
</g>
</svg>
