<?xml version="1.0" encoding="utf-8"?>
<!-- Generator: Adobe Illustrator 16.0.3, SVG Export Plug-In . SVG Version: 6.00 Build 0)  -->
<!DOCTYPE svg PUBLIC "-//W3C//DTD SVG 1.1//EN" "http://www.w3.org/Graphics/SVG/1.1/DTD/svg11.dtd">
<svg version="1.1" id="Layer_1" xmlns="http://www.w3.org/2000/svg" xmlns:xlink="http://www.w3.org/1999/xlink" x="0px" y="0px"
	 width="100px" height="80px" viewBox="0 0 100 80" enable-background="new 0 0 100 80" xml:space="preserve">
<g>
	<g>
		<g>
			<path fill="#FFFFFF" d="M24.284,25.879c1.089-3.59,2.093-8.252,5.047-10.805c-0.294,0-0.589,0-0.884,0
				c2.476,2.944,2.8,7.108,4.563,10.452c0.376,0.713,1.455,0.081,1.079-0.631c-1.828-3.468-2.176-7.634-4.758-10.705
				c-0.23-0.274-0.644-0.208-0.884,0c-3.115,2.692-4.223,7.583-5.368,11.357C22.844,26.32,24.05,26.648,24.284,25.879L24.284,25.879
				z"/>
		</g>
	</g>
	<g>
		<g>
			<path fill="#FFFFFF" d="M25.277,21.467c2.091-0.066,4.182-0.134,6.273-0.201c0.804-0.025,0.807-1.275,0-1.25
				c-2.091,0.067-4.182,0.134-6.273,0.201C24.473,20.243,24.47,21.493,25.277,21.467L25.277,21.467z"/>
		</g>
	</g>
	<g>
		<g>
			<path fill="#FFFFFF" d="M37.016,14.085c-0.372,3.628-0.168,7.404,0.421,10.999c0.046,0.284,0.346,0.44,0.603,0.459
				c2.351,0.166,4.709-0.021,7.057-0.167c0.801-0.05,0.805-1.3,0-1.25c-2.347,0.146-4.706,0.333-7.057,0.167
				c0.201,0.153,0.402,0.306,0.603,0.459c-0.57-3.479-0.735-7.157-0.376-10.667C38.348,13.284,37.097,13.292,37.016,14.085
				L37.016,14.085z"/>
		</g>
	</g>
	<g>
		<g>
			<path fill="#FFFFFF" d="M48.416,14.75c-0.023,3.447-0.292,6.891,0,10.333c0.028,0.336,0.263,0.629,0.625,0.625
				c2.403-0.026,4.79-0.256,7.167-0.605c0.795-0.116,0.456-1.321-0.332-1.205c-2.268,0.333-4.544,0.535-6.834,0.561
				c0.208,0.208,0.417,0.417,0.625,0.625c-0.292-3.442-0.022-6.886,0-10.333C49.67,13.944,48.42,13.945,48.416,14.75L48.416,14.75z"
				/>
		</g>
	</g>
	<g>
		<g>
			<path fill="#FFFFFF" d="M67.07,14.632c-0.055,3.781-1.646,10.854,4.078,11.27c6.465,0.469,7.688-6.226,6.575-11.226
				c-0.175-0.787-1.38-0.453-1.204,0.332c0.938,4.217,0.12,10.488-5.688,9.591c-4.212-0.648-2.552-7.131-2.511-9.967
				C68.333,13.825,67.083,13.827,67.07,14.632L67.07,14.632z"/>
		</g>
	</g>
	<g>
		<g>
			<path fill="#FFFFFF" d="M87.085,15.149c-2.162-0.115-4.358,0.888-5.558,2.718c-1.305,1.993,0.768,3.264,2.5,3.521
				c1.067,0.158,2.172-0.239,3.227-0.353c2.432-0.261,1.076,2.84-0.312,3.414c-2.084,0.863-5.436,0.401-7.252-0.926
				c-0.652-0.476-1.274,0.609-0.632,1.08c2.63,1.92,10.294,2.723,10.737-1.898c0.257-2.676-1.52-3.137-3.775-2.744
				c-1.017,0.177-4.41,0.487-3.412-1.464c0.775-1.519,2.912-2.182,4.478-2.099C87.891,16.441,87.887,15.191,87.085,15.149
				L87.085,15.149z"/>
		</g>
	</g>
	<g>
		<g>
			<path fill="#FFFFFF" d="M17.445,13.46c-4.395,0.204-7.661,3.901-7.226,8.32c0.536,5.443,6.15,5.261,9.975,3.392
				c0.724-0.354,0.09-1.433-0.631-1.08c-3.167,1.548-7.675,1.935-8.122-2.594c-0.356-3.616,2.467-6.624,6.003-6.788
				C18.249,14.673,18.251,13.423,17.445,13.46L17.445,13.46z"/>
		</g>
	</g>
</g>
<g>
	<g>
		<g>
			<path fill="#FFFFFF" d="M24.317,65.879c1.185-3.777,2.76-7.738,5.145-10.932c-0.36,0-0.719,0-1.079,0
				c2.308,3.062,3.31,6.871,4.598,10.429c0.272,0.752,1.48,0.429,1.205-0.332c-1.321-3.647-2.355-7.585-4.724-10.728
				c-0.299-0.396-0.781-0.399-1.079,0c-2.439,3.266-4.058,7.361-5.271,11.229C22.87,66.318,24.077,66.646,24.317,65.879
				L24.317,65.879z"/>
		</g>
	</g>
	<g>
		<g>
			<path fill="#FFFFFF" d="M26.123,61.467c1.736-0.064,3.461-0.277,5.198-0.342c0.804-0.029,0.807-1.279,0-1.25
				c-1.736,0.064-3.461,0.277-5.198,0.342C25.32,60.246,25.317,61.497,26.123,61.467L26.123,61.467z"/>
		</g>
	</g>
	<g>
		<g>
			<path fill="#FFFFFF" d="M37.05,54.085c0.068,3.613,0.269,7.222,0.398,10.833c0.013,0.368,0.276,0.588,0.625,0.625
				c2.322,0.247,4.559-0.583,6.891-0.189c0.788,0.133,1.126-1.07,0.332-1.205c-2.45-0.414-4.789,0.403-7.223,0.146
				c0.208,0.208,0.417,0.417,0.625,0.625c-0.13-3.61-0.331-7.22-0.398-10.833C38.285,53.279,37.035,53.277,37.05,54.085
				L37.05,54.085z"/>
		</g>
	</g>
	<g>
		<g>
			<path fill="#FFFFFF" d="M48.3,54.5c-0.002,3.529-0.029,7.059,0.148,10.584c0.017,0.338,0.271,0.629,0.625,0.625
				c2.337-0.023,4.666-0.217,7.002-0.271c0.805-0.019,0.807-1.269,0-1.25c-2.336,0.056-4.665,0.248-7.002,0.271
				c0.208,0.208,0.417,0.417,0.625,0.625c-0.178-3.525-0.15-7.055-0.148-10.584C49.552,53.693,48.301,53.693,48.3,54.5L48.3,54.5z"
				/>
		</g>
	</g>
	<g>
		<g>
			<path fill="#FFFFFF" d="M67.104,54.632c0.371,4.349-2.187,10.466,3.998,11.269c2.348,0.306,4.709-0.41,5.969-2.483
				c1.467-2.416,0.968-5.933,0.71-8.575c-0.077-0.795-1.328-0.803-1.25,0c0.409,4.213,0.896,9.891-4.821,9.85
				c-5.554-0.041-3.056-6.556-3.354-10.059C68.287,53.835,67.037,53.828,67.104,54.632L67.104,54.632z"/>
		</g>
	</g>
	<g>
		<g>
			<path fill="#FFFFFF" d="M87.285,55.171c-2.216-0.588-4.474,0.287-5.713,2.218c-1.195,1.858,0.17,3.482,2.014,3.928
				c1.052,0.254,2.089-0.058,3.112-0.281c1.15-0.253,1.849-0.049,1.918,1.295c0.048,0.922-0.419,1.661-1.186,2.124
				c-2,1.207-5.738,0.351-7.514-0.962c-0.648-0.479-1.271,0.605-0.631,1.08c2.63,1.943,10.341,3.027,10.562-1.857
				c0.133-2.943-1.761-3.281-4.186-2.729c-1.375,0.313-4.062,0.056-3.014-1.967c0.787-1.518,2.761-2.053,4.303-1.644
				C87.733,56.583,88.063,55.378,87.285,55.171L87.285,55.171z"/>
		</g>
	</g>
	<g>
		<g>
			<path fill="#FFFFFF" d="M17.478,53.46c-4.422-0.272-7.918,3.24-7.252,7.733c0.777,5.238,5.868,5.84,10.001,3.979
				c0.734-0.331,0.098-1.408-0.631-1.08c-3.461,1.561-7.707,1.117-8.172-3.35c-0.385-3.693,2.5-6.252,6.054-6.032
				C18.284,54.76,18.279,53.51,17.478,53.46L17.478,53.46z"/>
		</g>
	</g>
</g>
</svg>
