<?xml version="1.0" encoding="utf-8"?>
<!-- Generator: Adobe Illustrator 16.0.3, SVG Export Plug-In . SVG Version: 6.00 Build 0)  -->
<!DOCTYPE svg PUBLIC "-//W3C//DTD SVG 1.1//EN" "http://www.w3.org/Graphics/SVG/1.1/DTD/svg11.dtd">
<svg version="1.1" id="Layer_1" xmlns="http://www.w3.org/2000/svg" xmlns:xlink="http://www.w3.org/1999/xlink" x="0px" y="0px"
	 width="100px" height="80px" viewBox="0 0 100 80" enable-background="new 0 0 100 80" xml:space="preserve">
<g>
	<path fill="#49C0B2" d="M42.032,18.019c-2.275,2.335-3.636,6.182-1.087,8.846c2.495,2.607,7.637,1.16,9.743-1.236
		c1.939-2.208,1.125-5.388-0.745-7.328C47.717,15.992,44.44,16.134,42.032,18.019z M50.044,24.396
		c-1.355,2.377-5.62,3.282-7.86,1.88c-2.763-1.729-0.94-5.656,0.729-7.372c0.001,0,0.002,0,0.003-0.001
		c1.858-1.454,4.143-1.454,5.939,0.091C50.396,20.32,51.083,22.574,50.044,24.396z"/>
	<path fill="#49C0B2" d="M56.552,28.004c2.212-2.043,3.489-4.827,5.583-6.96c2.001,1.836,3.085,4.448,5.09,6.304
		c0.355,0.329,0.894,0.176,1.045-0.276c1.062-3.173,0.653-6.588,0.805-9.876c0.037-0.806-1.215-0.803-1.25,0
		c-0.128,2.814,0.174,5.731-0.468,8.491c-1.689-1.918-2.764-4.332-4.807-5.948c-0.276-0.218-0.61-0.251-0.885,0
		c-1.903,1.758-3.114,4.064-4.746,6.034c0.301-3.021,0.499-6.041-0.037-9.057c-0.14-0.793-1.344-0.456-1.204,0.332
		c0.619,3.489,0.174,7.023-0.193,10.515C55.424,28.141,56.189,28.338,56.552,28.004z"/>
	<path fill="#49C0B2" d="M36.294,15.776c-0.065-0.797-1.315-0.804-1.25,0c0.143,1.766,0.154,3.531,0.128,5.296
		c-2.267,0.074-4.512,0.375-6.754,0.717c0.072-1.942,0.101-3.884-0.043-5.83c-0.059-0.798-1.31-0.804-1.25,0
		c0.301,4.057-0.145,8.098-0.185,12.155c-0.008,0.807,1.242,0.806,1.25,0c0.017-1.71,0.104-3.417,0.179-5.124
		c0.086,0.024,0.18,0.033,0.283,0.017c2.159-0.33,4.319-0.613,6.5-0.687c-0.039,1.685-0.097,3.37-0.108,5.057
		c-0.005,0.807,1.245,0.806,1.25,0c0.012-1.826,0.081-3.649,0.119-5.473c0.055-0.148,0.059-0.316,0.009-0.465
		C36.455,19.553,36.447,17.665,36.294,15.776z"/>
	<path fill="#49C0B2" d="M15.595,27.569c-0.806,0-0.806,1.25,0,1.25C16.401,28.819,16.401,27.569,15.595,27.569z"/>
	<path fill="#49C0B2" d="M19.278,27.385c-0.806,0-0.806,1.25,0,1.25C20.084,28.635,20.084,27.385,19.278,27.385z"/>
	<path fill="#49C0B2" d="M22.777,27.017c-0.806,0-0.806,1.25,0,1.25C23.583,28.267,23.583,27.017,22.777,27.017z"/>
	<path fill="#49C0B2" d="M73.995,13.824c2.013-2.447,8.469-1.812,9.62,1.28c1.421,3.819-5.398,4.264-7.668,4.283
		c-0.293,0.002-0.51,0.192-0.604,0.459c-0.391,1.128-0.314,2.352-0.303,3.529c0.008,0.806,1.258,0.807,1.25,0
		c-0.01-0.911-0.056-1.855,0.148-2.749c3.581-0.103,9.646-1.079,8.379-5.854c-1.104-4.161-9.221-4.856-11.709-1.832
		C72.604,13.558,73.482,14.447,73.995,13.824z"/>
	<path fill="#49C0B2" d="M75.842,26.28c-0.806,0-0.806,1.25,0,1.25C76.648,27.53,76.648,26.28,75.842,26.28z"/>
	<path fill="#49C0B2" d="M42.158,57.921c-2.579,1.397-3.195,4.851-1.984,7.384c1.718,3.592,5.558,3.428,8.615,1.637
		c2.827-1.656,3.71-5.021,1.792-7.715C48.604,56.45,44.876,56.062,42.158,57.921z M48.158,65.861
		c-2.305,1.519-5.325,1.732-6.78-0.928c-1.072-1.962-0.634-4.822,1.408-5.932c0.001,0,0.002,0,0.003-0.001
		C47.661,55.671,53.534,62.318,48.158,65.861z"/>
	<path fill="#49C0B2" d="M67.823,57.195c0.387,2.915,0.163,5.765-0.683,8.548c-1.712-1.852-2.884-4.137-4.592-6.005
		c-0.218-0.237-0.669-0.25-0.885,0c-1.722,1.997-3.084,4.269-4.849,6.216c0.131-3.022-0.035-6.049,0.089-9.073
		c0.033-0.807-1.217-0.803-1.25,0c-0.146,3.561,0.14,7.126-0.17,10.682c-0.051,0.58,0.697,0.776,1.066,0.442
		c2.209-2.005,3.696-4.565,5.563-6.854c1.688,2.02,2.899,4.4,4.86,6.197c0.362,0.334,0.883,0.172,1.045-0.275
		c1.15-3.198,1.5-6.508,1.054-9.877C68.969,56.409,67.718,56.398,67.823,57.195z"/>
	<path fill="#49C0B2" d="M35.044,55.775c-0.062,1.781-0.104,3.562-0.117,5.341c-2.224,0.285-4.471,0.349-6.698,0.616
		c0.026-1.925,0.068-3.849,0.146-5.772c0.033-0.808-1.218-0.803-1.25,0c-0.164,4.051-0.184,8.103-0.185,12.155
		c0,0.806,1.25,0.806,1.25,0c0-1.714,0.009-3.427,0.026-5.14c2.229-0.293,4.479-0.354,6.71-0.617
		c0.003,1.673,0.033,3.346,0.117,5.021c0.041,0.803,1.291,0.807,1.25,0c-0.194-3.869-0.135-7.732,0-11.604
		C36.322,54.971,35.072,54.973,35.044,55.775z"/>
	<path fill="#49C0B2" d="M15.375,67.49c-0.806,0-0.806,1.25,0,1.25S16.181,67.49,15.375,67.49z"/>
	<path fill="#49C0B2" d="M19.062,67.385c-0.806,0-0.806,1.25,0,1.25S19.868,67.385,19.062,67.385z"/>
	<g>
		<path fill="#49C0B2" d="M22.757,67.135c-0.806,0-0.806,1.25,0,1.25C23.563,68.385,23.563,67.135,22.757,67.135z"/>
		<path fill="#49C0B2" d="M22.757,67.135c-0.806,0-0.806,1.25,0,1.25C23.563,68.385,23.563,67.135,22.757,67.135z"/>
	</g>
	<path fill="#49C0B2" d="M73.573,52.45c-0.585,0.557,0.302,1.44,0.886,0.885c1.568-1.494,3.5-1.733,5.525-1.114
		c1.858,0.568,3.705,2.414,3.246,4.49c-0.566,2.557-5.264,2.883-7.283,2.676c-0.364-0.037-0.592,0.314-0.625,0.625
		c-0.118,1.117-0.248,2.24-0.28,3.363c-0.022,0.807,1.228,0.805,1.25,0c0.025-0.9,0.117-1.801,0.212-2.698
		c3.225,0.156,8.186-0.996,8.048-4.89C84.366,50.479,76.771,49.409,73.573,52.45z"/>
	<path fill="#49C0B2" d="M75.758,66.279c-0.806,0-0.806,1.25,0,1.25C76.564,67.529,76.564,66.279,75.758,66.279z"/>
</g>
</svg>
