<?xml version="1.0" encoding="utf-8"?>
<!-- Generator: Adobe Illustrator 16.0.3, SVG Export Plug-In . SVG Version: 6.00 Build 0)  -->
<!DOCTYPE svg PUBLIC "-//W3C//DTD SVG 1.1//EN" "http://www.w3.org/Graphics/SVG/1.1/DTD/svg11.dtd">
<svg version="1.1" id="Layer_2" xmlns="http://www.w3.org/2000/svg" xmlns:xlink="http://www.w3.org/1999/xlink" x="0px" y="0px"
	 width="60px" height="60px" viewBox="0 0 60 60" enable-background="new 0 0 60 60" xml:space="preserve">
<g>
	<g>
		
			<rect x="30.58" y="13.721" transform="matrix(0.866 0.5 -0.5 0.866 18.2533 -14.1772)" fill="none" stroke="#333333" stroke-width="1.5" stroke-linecap="round" stroke-linejoin="round" stroke-miterlimit="10" width="9.999" height="26.5"/>
		
			<polyline fill="none" stroke="#333333" stroke-width="1.5" stroke-linecap="round" stroke-linejoin="round" stroke-miterlimit="10" points="
			38.741,13.494 40.241,10.896 47.17,14.896 45.67,17.494 		"/>
		
			<polyline fill="none" stroke="#333333" stroke-width="1.5" stroke-linecap="round" stroke-linejoin="round" stroke-miterlimit="10" points="
			25.491,36.443 23.991,39.043 30.919,43.043 32.419,40.443 		"/>
		
			<polyline fill="none" stroke="#333333" stroke-width="1.5" stroke-linecap="round" stroke-linejoin="round" stroke-miterlimit="10" points="
			23.991,39.043 23.955,47.104 30.919,43.043 		"/>
	</g>
	<g>
		<g>
			<path fill="none" stroke="#333333" stroke-width="1.5" stroke-linecap="round" stroke-linejoin="round" d="M21.83,47
				c-0.354-0.029-0.685-0.066-0.996-0.111"/>
			
				<path fill="none" stroke="#333333" stroke-width="1.5" stroke-linecap="round" stroke-linejoin="round" stroke-dasharray="1.819,2.7284" d="
				M18.215,46.152c-5.528-2.815,4.87-11.215-3.121-14.479"/>
			<path fill="none" stroke="#333333" stroke-width="1.5" stroke-linecap="round" stroke-linejoin="round" d="M13.803,31.238
				c-0.305-0.086-0.629-0.164-0.973-0.238"/>
		</g>
	</g>
</g>
</svg>
