<?xml version="1.0" encoding="utf-8"?>
<!-- Generator: Adobe Illustrator 16.0.3, SVG Export Plug-In . SVG Version: 6.00 Build 0)  -->
<!DOCTYPE svg PUBLIC "-//W3C//DTD SVG 1.1//EN" "http://www.w3.org/Graphics/SVG/1.1/DTD/svg11.dtd">
<svg version="1.1" id="Layer_2" xmlns="http://www.w3.org/2000/svg" xmlns:xlink="http://www.w3.org/1999/xlink" x="0px" y="0px"
	 width="60px" height="60px" viewBox="0 0 60 60" enable-background="new 0 0 60 60" xml:space="preserve">
<g>
	
		<rect x="26.75" y="13.719" transform="matrix(-0.866 -0.5 0.5 -0.866 45.7615 66.2003)" fill="none" stroke="#333333" stroke-width="1.5" stroke-linecap="round" stroke-linejoin="round" stroke-miterlimit="10" width="10" height="26.5"/>
	
		<polyline fill="none" stroke="#333333" stroke-width="1.5" stroke-linecap="round" stroke-linejoin="round" stroke-miterlimit="10" points="
		34.911,13.494 36.411,10.896 43.34,14.896 41.84,17.494 	"/>
	
		<polyline fill="none" stroke="#333333" stroke-width="1.5" stroke-linecap="round" stroke-linejoin="round" stroke-miterlimit="10" points="
		21.661,36.444 20.161,39.043 27.089,43.043 28.589,40.444 	"/>
	
		<polyline fill="none" stroke="#333333" stroke-width="1.5" stroke-linecap="round" stroke-linejoin="round" stroke-miterlimit="10" points="
		20.161,39.043 20.125,47.104 27.089,43.043 	"/>
</g>
<g>
	<g>
		<path fill="none" stroke="#333333" stroke-width="1.5" stroke-linecap="round" stroke-linejoin="round" d="M18,47
			c-0.354-0.029-0.685-0.066-0.996-0.111"/>
		
			<path fill="none" stroke="#333333" stroke-width="1.5" stroke-linecap="round" stroke-linejoin="round" stroke-dasharray="1.819,2.7284" d="
			M14.385,46.152c-5.528-2.815,4.87-11.215-3.121-14.479"/>
		<path fill="none" stroke="#333333" stroke-width="1.5" stroke-linecap="round" stroke-linejoin="round" d="M9.973,31.238
			C9.668,31.153,9.344,31.074,9,31"/>
	</g>
</g>
</svg>
