<?xml version="1.0" encoding="utf-8"?>
<!-- Generator: Adobe Illustrator 16.0.3, SVG Export Plug-In . SVG Version: 6.00 Build 0)  -->
<!DOCTYPE svg PUBLIC "-//W3C//DTD SVG 1.1//EN" "http://www.w3.org/Graphics/SVG/1.1/DTD/svg11.dtd">
<svg version="1.1" id="Layer_1" xmlns="http://www.w3.org/2000/svg" xmlns:xlink="http://www.w3.org/1999/xlink" x="0px" y="0px"
	 width="200px" height="50px" viewBox="0 0 200 50" enable-background="new 0 0 200 50" xml:space="preserve">
<g>
	<g>
		<g>
			<path fill="#FFFFFF" d="M0.5,47.521c0.767-0.466,1.517-0.899,2.25-1.299c0.733-0.4,1.466-0.818,2.199-1.25
				c0.633-0.367,1.266-0.726,1.899-1.075s1.283-0.709,1.949-1.074c0.4-0.234,0.808-0.467,1.224-0.701
				c0.418-0.233,0.826-0.466,1.225-0.7c0.667-0.398,1.309-0.781,1.925-1.148c0.616-0.368,1.241-0.733,1.875-1.101
				c0.833-0.498,1.657-0.998,2.475-1.498c0.816-0.5,1.641-0.982,2.474-1.45c1.132-0.667,2.274-1.333,3.424-1.998
				c1.149-0.668,2.291-1.334,3.424-2.001c0.566-0.299,1.258-0.649,2.075-1.05c0.816-0.399,1.657-0.808,2.524-1.224
				c0.866-0.416,1.699-0.824,2.499-1.226c0.8-0.399,1.482-0.749,2.049-1.05c0.366-0.2,0.716-0.481,1.05-0.85
				c-1.033,0.135-2.049,0.268-3.049,0.401c-0.999,0.133-2.017,0.282-3.048,0.448c-0.667,0.101-1.475,0.268-2.425,0.501
				c-0.95,0.232-1.925,0.474-2.924,0.724c-1,0.251-1.975,0.477-2.923,0.675c-0.95,0.2-1.775,0.351-2.475,0.451
				c-0.6,0.066-1.208,0.174-1.824,0.323c-0.618,0.151-1.224,0.259-1.824,0.325c-0.4,0.034-0.8-0.041-1.2-0.224
				c-0.399-0.183-0.733-0.492-1-0.925c-0.167-0.267-0.358-0.501-0.575-0.7c-0.217-0.2-0.442-0.417-0.675-0.649
				c0.267-0.966,0.717-1.791,1.35-2.475c0.633-0.683,1.299-1.341,2-1.976c1.2-1,2.465-2.015,3.799-3.048
				c0.333-0.267,0.666-0.475,1-0.625c0.333-0.15,0.666-0.342,1-0.576c0.7-0.5,1.4-1,2.1-1.5c0.7-0.5,1.382-1,2.05-1.5
				c0.866-0.566,1.716-1.125,2.549-1.674c0.833-0.549,1.683-1.107,2.549-1.674c0.366-0.267,0.716-0.525,1.05-0.775
				c0.333-0.249,0.682-0.507,1.049-0.774c0.632-0.433,1.258-0.875,1.875-1.325c0.617-0.45,1.225-0.908,1.825-1.375
				c0.767-0.566,1.549-1.132,2.35-1.699c0.8-0.566,1.582-1.117,2.349-1.65c0.266-0.2,0.558-0.366,0.875-0.5
				c0.316-0.132,0.625-0.283,0.925-0.45c0.166-0.066,0.349-0.157,0.549-0.274c0.2-0.118,0.383-0.243,0.55-0.375
				c0.2-0.133,0.399-0.283,0.599-0.451c0.201-0.166,0.4-0.332,0.6-0.499h0.3c0.132,0.333,0.25,0.683,0.349,1.05
				c0.1,0.367,0.033,0.716-0.2,1.049C46.137,5.65,45.703,6.2,45.237,6.733c-0.467,0.533-0.95,1.034-1.449,1.5
				c-0.9,0.7-1.818,1.358-2.75,1.975c-0.934,0.618-1.883,1.258-2.849,1.925c-1.234,0.9-2.351,1.917-3.35,3.049
				c-0.399,0.467-0.817,0.908-1.25,1.324c-0.434,0.417-0.883,0.825-1.35,1.225c-0.367,0.367-0.75,0.708-1.15,1.024
				c-0.399,0.317-0.783,0.643-1.149,0.975c-0.167,0.167-0.458,0.408-0.875,0.725c-0.417,0.317-0.858,0.659-1.325,1.024
				c-0.467,0.367-0.9,0.717-1.299,1.049c-0.4,0.334-0.683,0.6-0.85,0.801c-0.3,0.299-0.6,0.617-0.9,0.949
				c-0.3,0.334-0.633,0.684-0.999,1.051h0.699c0.633-0.133,1.4-0.342,2.299-0.625c0.899-0.282,1.816-0.575,2.75-0.875
				c0.933-0.3,1.84-0.591,2.724-0.875c0.883-0.283,1.658-0.491,2.324-0.625c0.433-0.066,0.857-0.141,1.274-0.225
				c0.417-0.083,0.841-0.191,1.275-0.325c0.7-0.167,1.375-0.201,2.024-0.1c0.649,0.1,1.308,0.2,1.975,0.3
				c0.566,0.067,1.091,0.167,1.575,0.3c0.482,0.133,0.907,0.466,1.274,1c0.067,0.133,0.159,0.333,0.275,0.6
				c0.116,0.268,0.175,0.45,0.175,0.551c-0.033,0.133-0.042,0.274-0.025,0.424c0.017,0.15-0.008,0.292-0.075,0.425
				c-0.3,0.567-0.592,1.133-0.875,1.701c-0.283,0.566-0.708,1.016-1.275,1.349c-0.133,0.067-0.266,0.133-0.399,0.2
				c-0.134,0.066-0.25,0.148-0.351,0.249c-0.566,0.568-1.174,1.101-1.824,1.601c-0.65,0.499-1.308,0.916-1.975,1.25
				c-1.034,0.498-2.05,1.056-3.049,1.674c-1,0.617-2.017,1.208-3.048,1.773c-0.667,0.367-1.343,0.717-2.025,1.051
				c-0.684,0.333-1.358,0.682-2.025,1.05c-1.233,0.665-2.466,1.324-3.698,1.974c-1.233,0.65-2.467,1.293-3.699,1.925
				c-0.6,0.333-1.208,0.617-1.824,0.85c-0.617,0.232-1.225,0.482-1.825,0.75c-0.333,0.132-0.649,0.3-0.949,0.499
				c-0.3,0.201-0.6,0.351-0.9,0.45c-0.833,0.3-1.657,0.541-2.475,0.724c-0.816,0.185-1.641,0.427-2.474,0.728
				c-1.066,0.365-2.107,0.773-3.124,1.223c-1.016,0.45-2.042,0.942-3.075,1.477c-0.732,0.331-1.416,0.416-2.049,0.249
				c-0.133-0.066-0.267-0.125-0.4-0.175c-0.133-0.051-0.266-0.108-0.4-0.176V47.521z"/>
		</g>
		<g>
			<path fill="#FFFFFF" d="M160.562,2.496c-0.065,0.232-0.148,0.449-0.248,0.649c-0.102,0.2-0.185,0.417-0.25,0.649
				c0.099,0,0.25,0.034,0.449,0.1c-0.068,0.267-0.1,0.517-0.1,0.75c-0.167,0.2-0.343,0.409-0.524,0.625
				c-0.184,0.217-0.359,0.425-0.523,0.625l-0.152,0.149c-0.231-0.066-0.441-0.025-0.625,0.125c-0.184,0.149-0.375,0.274-0.575,0.375
				c-0.366,0.101-0.716,0.175-1.049,0.225c-0.333,0.05-0.668,0.108-1,0.175c-0.532,0.168-1.066,0.309-1.599,0.425
				c-0.533,0.117-1.033,0.275-1.499,0.475c-0.634,0.3-1.251,0.484-1.85,0.55c-0.601,0.067-1.217,0.133-1.85,0.2
				c-0.568,0.067-1.142,0.167-1.726,0.3c-0.584,0.133-1.173,0.233-1.774,0.3c-0.7,0.133-1.434,0.234-2.2,0.3
				c-0.165,0-0.281,0.017-0.35,0.049l0.35,0.15c0,0.034-0.032,0.084-0.097,0.15c-0.368,0.733-0.727,1.466-1.077,2.199
				c-0.35,0.734-0.758,1.45-1.224,2.149c-0.7,1.168-1.417,2.308-2.149,3.425c-0.733,1.117-1.483,2.242-2.25,3.374
				c-0.4,0.567-0.825,1.074-1.274,1.525c-0.45,0.45-0.858,0.958-1.226,1.524c-0.434,0.6-0.85,1.208-1.249,1.825
				c-0.398,0.617-0.817,1.241-1.25,1.875c-0.201,0.3-0.541,0.783-1.024,1.447c-0.483,0.669-0.991,1.368-1.524,2.102
				c-0.533,0.732-1.043,1.424-1.523,2.074c-0.485,0.649-0.826,1.125-1.026,1.425c-0.266,0.3-0.507,0.6-0.725,0.899
				c-0.216,0.3-0.458,0.599-0.724,0.898c-0.301,0.401-0.6,0.784-0.901,1.15c-0.299,0.366-0.616,0.732-0.948,1.1
				c-0.267,0.333-0.542,0.658-0.826,0.976c-0.281,0.315-0.573,0.623-0.873,0.925c-0.332,0.3-0.651,0.599-0.951,0.898
				c-0.301,0.3-0.632,0.551-0.999,0.751c-0.434,0.198-0.8,0.474-1.1,0.823c-0.301,0.351-0.6,0.709-0.899,1.076
				c-0.267,0.332-0.558,0.648-0.873,0.949c-0.318,0.3-0.711,0.416-1.178,0.35c-0.266-0.033-0.499,0.051-0.699,0.251
				c-0.199,0.199-0.382,0.448-0.549,0.748h-0.3c0.065-0.333,0.115-0.565,0.149-0.697l-0.201-0.201
				c-0.133,0.333-0.232,0.565-0.3,0.699c-0.065-0.034-0.108-0.059-0.125-0.075s-0.057-0.042-0.124-0.073
				c0.067-0.168,0.117-0.326,0.149-0.477c0.034-0.149,0.083-0.274,0.148-0.375c0.47-0.667,0.91-1.317,1.327-1.949
				c0.415-0.634,0.856-1.283,1.324-1.948c0.4-0.602,0.783-1.201,1.15-1.801c0.366-0.6,0.767-1.199,1.198-1.798
				c0.335-0.501,0.809-1.193,1.425-2.076c0.617-0.882,1.269-1.807,1.949-2.773c0.684-0.966,1.333-1.892,1.949-2.773
				c0.616-0.884,1.108-1.576,1.477-2.075c0.299-0.433,0.624-0.857,0.975-1.275c0.349-0.417,0.689-0.841,1.023-1.275
				c0.433-0.566,0.851-1.125,1.25-1.674c0.399-0.551,0.816-1.107,1.25-1.675c0.865-1.166,1.756-2.324,2.673-3.474
				s1.809-2.307,2.676-3.474c0.466-0.633,0.906-1.257,1.323-1.875c0.417-0.616,0.859-1.225,1.324-1.825
				c0.033-0.066,0.117-0.241,0.251-0.524c0.132-0.283,0.283-0.591,0.449-0.925l-0.799,0.05c-0.501,0.034-0.958,0.059-1.374,0.075
				c-0.418,0.018-0.843,0.043-1.275,0.075c-0.999,0.068-2.008,0.142-3.023,0.226c-1.02,0.083-2.042,0.158-3.075,0.225
				c-0.567,0.066-1.158,0.125-1.774,0.175c-0.617,0.049-1.208,0.092-1.772,0.125c-0.569,0.034-1.11-0.042-1.626-0.225
				c-0.518-0.182-0.975-0.508-1.374-0.976c-0.201-0.265-0.334-0.556-0.401-0.874c-0.066-0.317-0.198-0.607-0.399-0.875
				c-0.101-0.099-0.066-0.25,0.101-0.449c0.165-0.201,0.332-0.301,0.499-0.301c0.367,0.034,0.742,0.068,1.126,0.101
				c0.383,0.034,0.757,0.017,1.123-0.05c1.667-0.167,3.316-0.341,4.95-0.524c1.632-0.184,3.264-0.376,4.897-0.576
				c1.166-0.167,2.324-0.35,3.474-0.549c1.151-0.201,2.308-0.401,3.475-0.6c0.6-0.101,1.207-0.2,1.824-0.301
				c0.615-0.1,1.24-0.199,1.875-0.3c1.199-0.233,2.406-0.441,3.623-0.625c1.218-0.183,2.424-0.375,3.625-0.575
				c0.767-0.166,1.522-0.341,2.274-0.525c0.749-0.182,1.49-0.357,2.224-0.524c0.233-0.066,0.458-0.083,0.675-0.051
				c0.217,0.034,0.424,0.019,0.624-0.049c0.167-0.033,0.308-0.091,0.425-0.175c0.118-0.083,0.243-0.158,0.377-0.225l0.849,0.101
				c0.1,0.065,0.207,0.141,0.324,0.224C160.306,2.305,160.431,2.396,160.562,2.496z"/>
		</g>
		<g>
			<path fill="#FFFFFF" d="M199.5,3.884c-0.299,1.433-0.898,2.666-1.8,3.699c-0.266,0.299-0.498,0.625-0.699,0.974
				c-0.198,0.35-0.417,0.691-0.649,1.026c-0.4,0.632-0.792,1.267-1.175,1.898c-0.384,0.634-0.775,1.249-1.174,1.85
				c-0.268,0.4-0.535,0.792-0.801,1.174c-0.266,0.384-0.517,0.774-0.749,1.175c-0.067,0.067-0.051,0.209,0.05,0.425
				c0.099,0.217,0.199,0.357,0.3,0.424c0.231,0.101,0.424,0.201,0.574,0.301c0.149,0.099,0.225,0.316,0.225,0.649
				c0,0.133,0.058,0.242,0.175,0.324c0.118,0.084,0.209,0.192,0.276,0.325c0.532,0.634,0.415,1.1-0.352,1.399
				c-0.667,0.268-1.34,0.534-2.023,0.8c-0.684,0.267-1.358,0.534-2.023,0.8c-0.301,0.134-0.585,0.274-0.851,0.424
				c-0.268,0.151-0.518,0.409-0.749,0.775c-0.401,0.699-0.843,1.375-1.325,2.025c-0.482,0.649-0.958,1.291-1.424,1.922
				c-0.769,0.936-1.526,1.844-2.275,2.726c-0.751,0.885-1.492,1.774-2.224,2.676c-0.267,0.3-0.725,0.814-1.375,1.548
				s-1.385,1.56-2.199,2.475c-0.818,0.916-1.643,1.865-2.475,2.85c-0.832,0.981-1.568,1.891-2.199,2.724
				c-0.467,0.632-0.917,1.268-1.349,1.899c-0.434,0.632-0.935,1.183-1.5,1.65c-0.201,0.166-0.385,0.357-0.552,0.574
				s-0.343,0.426-0.524,0.625c-0.184,0.201-0.384,0.356-0.599,0.474c-0.219,0.117-0.477,0.176-0.775,0.176
				c-0.034,0-0.059,0.032-0.075,0.1c-0.018,0.068-0.024,0.133-0.024,0.201h-0.699c0.098-0.368,0.198-0.742,0.299-1.125
				c0.1-0.384,0.232-0.74,0.4-1.075c0.499-0.832,1.006-1.658,1.523-2.475s1.059-1.624,1.625-2.425
				c0.366-0.533,0.65-0.947,0.85-1.249c0.2-0.299,0.351-0.532,0.451-0.699c0.1-0.168,0.183-0.31,0.25-0.425
				c0.065-0.118,0.157-0.267,0.273-0.449c0.116-0.185,0.274-0.426,0.476-0.725c0.199-0.301,0.482-0.718,0.85-1.251
				c0.4-0.6,0.699-1.049,0.9-1.349c0.198-0.3,0.374-0.558,0.524-0.774c0.148-0.217,0.324-0.476,0.524-0.775
				c0.199-0.3,0.499-0.749,0.899-1.35l4.199-6.149c0.1-0.132,0.184-0.266,0.25-0.4c0.066-0.132,0.118-0.315,0.15-0.549
				c-0.967,0.367-1.949,0.718-2.949,1.049c-0.999,0.334-2.001,0.668-3,1c-0.566,0.167-1.149,0.308-1.749,0.425
				s-1.183,0.242-1.75,0.376c-0.567,0.133-1.083,0.291-1.55,0.474c-0.466,0.184-0.883,0.592-1.25,1.225
				c-0.466,0.834-0.973,1.635-1.522,2.399c-0.551,0.768-1.093,1.533-1.625,2.3c-0.567,0.8-1.108,1.601-1.626,2.398
				c-0.515,0.801-1.105,1.551-1.773,2.249c-0.634,0.668-1.216,1.368-1.75,2.1c-0.533,0.733-1.117,1.449-1.749,2.149
				c-0.266,0.268-0.566,0.476-0.899,0.626c-0.333,0.149-0.666,0.325-1,0.523c-0.266,0.167-0.525,0.326-0.775,0.476
				c-0.251,0.149-0.508,0.307-0.774,0.475c-0.1,0.067-0.2,0.108-0.299,0.126c-0.101,0.016-0.201,0.056-0.302,0.124
				c-0.165-0.533-0.141-0.983,0.076-1.349c0.217-0.367,0.425-0.733,0.624-1.101c1.2-2,2.408-3.974,3.625-5.922
				c1.216-1.95,2.44-3.926,3.673-5.924c0.167-0.267,0.333-0.533,0.5-0.799c0.167-0.269,0.367-0.584,0.6-0.95
				c-0.4,0-0.774-0.018-1.125-0.052c-0.35-0.031-0.69-0.016-1.024,0.052c-0.832,0.167-1.599,0.124-2.298-0.126
				c-0.7-0.25-1.416-0.507-2.151-0.774c-0.165-0.066-0.332-0.15-0.499-0.25c-0.165-0.1-0.331-0.216-0.499-0.351
				c-0.067-0.066-0.134-0.176-0.2-0.324c-0.066-0.15-0.084-0.259-0.051-0.325c0.067-0.1,0.159-0.207,0.275-0.324
				c0.118-0.118,0.243-0.191,0.375-0.226c1.166-0.267,2.35-0.532,3.548-0.8c1.201-0.266,2.383-0.55,3.549-0.849
				c0.601-0.167,1.209-0.35,1.826-0.55c0.614-0.199,1.207-0.433,1.774-0.699c0.232-0.133,0.425-0.342,0.575-0.625
				c0.149-0.283,0.307-0.559,0.475-0.825c0.698-1.032,1.341-1.975,1.924-2.824s1.149-1.675,1.7-2.475
				c0.55-0.8,1.115-1.624,1.698-2.474c0.584-0.851,1.226-1.775,1.926-2.775c0.566-0.866,1.15-1.708,1.75-2.524
				c0.599-0.816,1.199-1.641,1.798-2.473c0.232-0.301,0.501-0.434,0.801-0.4c0.3,0.033,0.549,0.184,0.749,0.449
				c0.1,0.167,0.217,0.309,0.351,0.425c0.132,0.118,0.283,0.193,0.449,0.225c0.466,0.134,0.75,0.359,0.85,0.675
				c0.101,0.316,0.083,0.758-0.051,1.324c-0.198,1.134-0.616,2.092-1.248,2.874c-0.635,0.784-1.233,1.609-1.799,2.475
				c-0.3,0.5-0.541,0.9-0.726,1.201c-0.184,0.3-0.368,0.591-0.55,0.875c-0.185,0.283-0.376,0.574-0.575,0.875
				c-0.2,0.299-0.449,0.683-0.75,1.149c-0.266,0.367-0.551,0.732-0.851,1.1c-0.299,0.367-0.582,0.732-0.85,1.099
				c0.066,0.134,0.117,0.217,0.15,0.25c0.501-0.099,1.008-0.2,1.524-0.299c0.518-0.101,1.024-0.233,1.525-0.4
				c1.066-0.3,2.124-0.632,3.175-1c1.049-0.367,2.105-0.701,3.173-1c1.033-0.267,1.865-0.966,2.499-2.1
				c0.533-0.866,1.05-1.74,1.55-2.624c0.5-0.883,1.034-1.758,1.601-2.625c0.266-0.432,0.541-0.85,0.825-1.25
				c0.281-0.399,0.557-0.799,0.823-1.199c0.468-0.632,0.909-1.257,1.325-1.875c0.416-0.616,0.841-1.242,1.274-1.874
				c0.3-0.467,0.633-0.867,0.999-1.2c0.367-0.333,0.801-0.533,1.302-0.601h0.499c0.032,0.068,0.057,0.143,0.073,0.226
				c0.018,0.083,0.043,0.125,0.077,0.125c0.565-0.067,1.023,0.034,1.374,0.3C198.927,3.051,199.233,3.417,199.5,3.884z"/>
		</g>
	</g>
	<g>
		<path fill="#FFFFFF" d="M120.358,30.43c0,0.091,0.434-0.066,1.3-0.468c0.866-0.398,1.833-0.887,2.898-1.464
			c1.2-0.623,2.6-1.378,4.2-2.267v0.732c-1.377,1.023-2.689,1.912-3.933,2.666c-1.065,0.624-2.133,1.188-3.197,1.699
			c-1.069,0.512-1.868,0.679-2.401,0.5c-0.801-0.222-1.275-0.71-1.433-1.466c-0.155-0.756-0.188-1.398-0.101-1.933
			c-1.11,0.978-2.144,1.823-3.098,2.532c-0.955,0.712-1.745,1.245-2.367,1.6c-0.532,0.268-1.044,0.566-1.531,0.899
			c-0.491,0.333-1.025,0.611-1.602,0.833c-1.331,0.533-2.754,0.622-4.265,0.268c-1.776-0.355-3.155-1.245-4.131-2.667
			c-0.089-0.177-0.178-0.377-0.266-0.6c-0.091-0.222-0.179-0.443-0.268-0.666c-0.088-1.022,0.288-2.143,1.133-3.366
			c0.844-1.221,1.845-2.409,2.999-3.566c1.155-1.155,2.321-2.199,3.501-3.131c1.175-0.934,2.03-1.623,2.565-2.066
			c0.31-0.222,0.798-0.5,1.465-0.834c0.667-0.333,1.409-0.633,2.232-0.899c0.821-0.267,1.711-0.489,2.666-0.667
			c0.955-0.177,1.876-0.222,2.766-0.133c0.667,0.089,1.076,0.389,1.233,0.899c0.157,0.511,0.366,1.011,0.633,1.5
			c0.044,0.089,0.111,0.178,0.2,0.267c0.222,0.223,0.478,0.632,0.767,1.232c0.29,0.6,0.39,1.345,0.301,2.233
			c0,0.177-0.023,0.366-0.068,0.566c-0.044,0.2-0.11,0.411-0.198,0.633c-0.045,0.045-0.067,0.078-0.067,0.099
			c0,0.024-0.022,0.058-0.067,0.1c-0.178,0.579-0.365,1.245-0.566,2c-0.198,0.757-0.398,1.49-0.6,2.2
			c-0.199,0.711-0.366,1.322-0.501,1.832C120.426,30.041,120.358,30.342,120.358,30.43z M106.43,30.03
			c0.623-0.044,1.543-0.477,2.767-1.3c1.22-0.822,2.453-1.777,3.698-2.866c1.243-1.088,2.343-2.176,3.3-3.266
			c0.954-1.088,1.476-1.9,1.565-2.433c-0.489-0.133-0.978-0.199-1.467-0.199c-0.444,0-0.932,0.056-1.466,0.167
			c-0.533,0.111-1.044,0.323-1.531,0.633c-0.314,0.223-0.833,0.599-1.568,1.132c-0.733,0.533-1.511,1.133-2.333,1.799
			c-0.822,0.667-1.621,1.366-2.398,2.1c-0.777,0.732-1.365,1.412-1.766,2.032c-0.4,0.623-0.534,1.135-0.4,1.534
			C104.964,29.763,105.497,29.986,106.43,30.03z"/>
	</g>
	<path fill="none" d="M126.756,24.778"/>
	<g>
		<path fill="#FFFFFF" d="M157.883,18.899c0.176,0.09,0.299,0.323,0.365,0.7c0.068,0.377,0.089,0.812,0.068,1.299
			c-0.024,0.49-0.123,0.989-0.303,1.5c-0.178,0.512-0.421,0.944-0.731,1.3c-1.423,0.4-2.644,0.667-3.666,0.8
			c-1.023,0.133-2.043,0.111-3.064-0.066c0.844-1.067,1.433-1.888,1.767-2.466c0.332-0.577,0.542-1.177,0.632-1.8
			c-1.067,0.4-2.354,1.156-3.866,2.266c-1.51,1.112-2.888,2.266-4.132,3.466c-0.044,0-0.065,0.023-0.065,0.066
			c-0.4,0.399-0.834,0.856-1.301,1.365c-0.468,0.512-0.891,1.023-1.266,1.533c-0.379,0.512-0.713,0.979-1,1.401
			c-0.29,0.421-0.457,0.744-0.5,0.966c0.267,0.223,0.888,0.299,1.866,0.232c0.977-0.066,2.121-0.211,3.433-0.434
			c1.309-0.221,2.711-0.51,4.2-0.865c1.486-0.355,2.898-0.676,4.23-0.969c1.332-0.286,2.499-0.519,3.498-0.696
			c1-0.178,1.679-0.245,2.033-0.201c0,0.044-0.021,0.066-0.066,0.066c-0.18,0.09-0.665,0.289-1.466,0.6s-1.743,0.678-2.833,1.101
			c-1.089,0.423-2.266,0.865-3.533,1.332c-1.266,0.466-2.455,0.9-3.564,1.3c-1.111,0.399-2.066,0.756-2.866,1.065
			c-0.8,0.312-1.288,0.49-1.466,0.534c-1.333,0.533-2.756,0.622-4.266,0.268c-1.776-0.355-3.157-1.245-4.133-2.667
			c-0.089-0.177-0.178-0.377-0.266-0.6c-0.09-0.222-0.18-0.444-0.267-0.666c-0.088-1.023,0.288-2.143,1.133-3.367
			c0.845-1.22,1.845-2.409,3.001-3.565c1.153-1.155,2.319-2.199,3.498-3.132c1.177-0.933,2.03-1.622,2.565-2.066
			c0.31-0.222,0.798-0.5,1.466-0.833c0.666-0.333,1.41-0.633,2.231-0.899c0.823-0.267,1.712-0.489,2.666-0.666
			c0.955-0.178,1.878-0.222,2.767-0.133c0.667,0.089,1.076,0.389,1.232,0.899c0.157,0.511,0.366,1.011,0.633,1.5
			C156.771,18.722,157.217,18.899,157.883,18.899z"/>
	</g>
	<path fill="#FFFFFF" d="M104.779,42.64h-0.1h-0.2c-0.032,0-0.066,0.017-0.1,0.051h-0.248c-0.201,0.066-0.367,0.1-0.501,0.1h-0.2
		c-0.134-0.033-0.25-0.084-0.35-0.15s-0.201-0.134-0.3-0.2c-0.068-0.067-0.118-0.1-0.15-0.1c-0.135-0.102-0.269-0.193-0.4-0.275
		c-0.134-0.083-0.267-0.176-0.399-0.274c-0.5-0.368-0.983-0.7-1.448-0.999c-0.135-0.068-0.259-0.135-0.375-0.2
		c-0.117-0.068-0.259-0.135-0.426-0.201c-0.232-0.1-0.458-0.199-0.674-0.301c-0.217-0.1-0.409-0.231-0.575-0.399
		c-0.567-0.433-1.101-0.883-1.601-1.349c-0.5-0.467-1-0.95-1.499-1.45c-0.433-0.399-1.049-0.982-1.849-1.749
		c-0.8-0.766-1.633-1.565-2.499-2.4c-0.867-0.831-1.692-1.615-2.475-2.349c-0.784-0.731-1.342-1.282-1.675-1.65
		c-0.199-0.198-0.383-0.415-0.549-0.648s-0.333-0.467-0.5-0.7c-0.068-0.065-0.125-0.15-0.174-0.249
		c-0.051-0.1-0.11-0.183-0.176-0.25c-1.266-1.733-2.582-3.033-3.948-3.9c-0.068-0.032-0.242,0-0.526,0.101
		c-0.282,0.1-0.574,0.225-0.875,0.375c-0.299,0.149-0.566,0.292-0.799,0.425c-0.233,0.134-0.333,0.2-0.3,0.2
		c-0.334,0.368-0.651,0.734-0.95,1.1c-0.299,0.367-0.567,0.75-0.799,1.149c-0.367,0.668-0.784,1.309-1.25,1.925
		c-0.467,0.617-0.933,1.209-1.4,1.775c-0.566,0.767-1.083,1.34-1.549,1.724c-0.467,0.383-0.908,0.724-1.325,1.024
		c-0.417,0.299-0.809,0.634-1.174,1.001c-0.368,0.366-0.718,0.899-1.049,1.598c-0.401,0.501-0.818,0.968-1.25,1.4
		c-0.401,0.365-0.8,0.717-1.2,1.049c-0.4,0.334-0.799,0.684-1.2,1.052c-0.067,0.065-0.15,0.133-0.25,0.198
		c-0.099,0.066-0.184,0.133-0.25,0.2c-0.132,0.134-0.265,0.2-0.399,0.2c-0.033,0.031-0.066,0.051-0.1,0.051h-0.05
		c-0.066,0.065-0.116,0.099-0.15,0.099c-0.3,0.201-0.566,0.418-0.8,0.65c-0.266,0.333-0.533,0.658-0.8,0.974
		c-0.266,0.316-0.532,0.642-0.799,0.975c-0.434,0.533-0.858,1.06-1.275,1.575c-0.416,0.517-0.857,1.043-1.325,1.574
		c-0.201,0.234-0.424,0.441-0.675,0.625c-0.25,0.184-0.507,0.357-0.775,0.525l-0.6,0.45l-0.1,0.101h-0.1
		c-0.167,0-0.283-0.018-0.351-0.051h-0.35c-0.167,0-0.282,0.018-0.35,0.051h-0.199c-0.201,0-0.316-0.051-0.351-0.15
		c-0.1-0.168-0.116-0.368-0.05-0.601v-0.1v-0.199l0.15-0.101c0.067-0.067,0.117-0.109,0.149-0.124
		c0.034-0.018,0.068-0.06,0.101-0.125c0.267-0.201,0.449-0.352,0.549-0.45c0.067-0.102,0.143-0.191,0.225-0.275
		c0.084-0.083,0.159-0.174,0.226-0.274c0.133-0.201,0.25-0.352,0.35-0.452c0.167-0.165,0.324-0.341,0.475-0.523
		c0.15-0.183,0.309-0.357,0.475-0.525c0.367-0.366,0.708-0.733,1.025-1.1c0.317-0.367,0.591-0.767,0.825-1.199
		c0.3-0.566,0.633-1.099,0.999-1.6c0.368-0.498,0.734-0.982,1.1-1.45c0.234-0.3,0.458-0.592,0.674-0.874
		c0.217-0.283,0.426-0.574,0.625-0.874c0.733-1.067,1.443-2.082,2.125-3.05c0.683-0.965,1.225-1.699,1.625-2.2
		c0.566-0.765,1.157-1.547,1.774-2.349c0.617-0.8,1.225-1.599,1.825-2.399c0.366-0.466,0.725-0.907,1.075-1.325
		c0.349-0.416,0.707-0.841,1.074-1.275c0.267-0.299,0.525-0.607,0.775-0.924c0.249-0.316,0.507-0.641,0.775-0.975
		c0.366-0.432,0.699-0.865,1-1.299c0.066-0.101,0.141-0.208,0.225-0.325c0.083-0.116,0.159-0.226,0.225-0.325
		c0.066-0.066,0.118-0.133,0.15-0.201c0.034-0.065,0.083-0.132,0.151-0.2c0.133-0.132,0.25-0.257,0.349-0.375
		c0.101-0.116,0.217-0.24,0.351-0.375c0.466-0.466,0.925-0.948,1.375-1.449c0.45-0.5,0.907-0.982,1.375-1.45
		c0.1-0.1,0.2-0.167,0.3-0.2c0.099-0.033,0.2-0.066,0.3-0.099c0.032,0,0.066-0.008,0.1-0.026c0.033-0.016,0.067-0.025,0.101-0.025
		l0.099-0.099l0.6-0.75c0.033-0.066,0.118-0.166,0.25-0.3l0.2-0.25l0.199,0.15c0.066,0.034,0.108,0.059,0.125,0.076
		c0.017,0.017,0.059,0.042,0.125,0.075c0.233,0.1,0.451,0.25,0.651,0.45c0.099,0.1,0.157,0.217,0.174,0.35
		c0.017,0.134,0.025,0.268,0.025,0.4c0,0.034,0.008,0.05,0.025,0.05s0.026,0.018,0.026,0.05c0,0.068-0.009,0.134-0.026,0.2
		c-0.017,0.067-0.025,0.133-0.025,0.2h-0.049c0.066,0.134,0.125,0.259,0.174,0.375c0.051,0.117,0.108,0.226,0.175,0.325
		c0.066,0.167,0.15,0.349,0.25,0.549c0.099,0.2,0.183,0.4,0.251,0.601c0.066,0.133,0.082,0.266,0.049,0.399
		c-0.034,0.134-0.049,0.267-0.049,0.4c-0.034,0.034-0.051,0.084-0.051,0.151c0,0.233,0.066,0.433,0.201,0.599
		c0.132,0.2,0.265,0.301,0.399,0.301l0.05-0.05c0.2,0,0.468-0.034,0.8-0.101c0.466-0.066,0.949-0.141,1.449-0.224
		c0.5-0.083,0.982-0.191,1.451-0.326c0.232-0.066,0.465-0.115,0.699-0.149c0.232-0.032,0.467-0.083,0.699-0.15
		c0.966-0.2,1.925-0.434,2.875-0.7c0.95-0.267,1.891-0.633,2.825-1.1c0.6-0.332,1.225-0.691,1.874-1.074
		c0.65-0.383,1.257-0.826,1.823-1.325c1.066-0.965,1.601-2.166,1.601-3.599c-0.034-0.2-0.159-0.391-0.375-0.575
		c-0.217-0.184-0.492-0.291-0.824-0.325c-0.268-0.033-0.518-0.05-0.75-0.05c-0.235,0-0.484,0-0.75,0c-2.2,0-4.483,0.333-6.849,1
		c-1.1,0.299-2.2,0.632-3.3,1c-0.766,0.267-1.548,0.518-2.348,0.75c-0.8,0.233-1.583,0.45-2.349,0.65
		c-0.534,0.167-1.017,0.333-1.45,0.5c-0.434,0.167-0.875,0.325-1.324,0.475c-0.45,0.15-0.909,0.225-1.375,0.225
		c-0.068,0-0.143-0.008-0.225-0.026c-0.083-0.015-0.159-0.024-0.225-0.024c-0.101,0-0.208,0.034-0.326,0.101
		c-0.117,0.066-0.258,0.133-0.424,0.2c-0.101,0.066-0.284,0.167-0.549,0.299c-0.268,0.101-0.518,0.201-0.75,0.3
		c-0.234,0.101-0.484,0.183-0.75,0.25c-0.5,0.2-1,0.4-1.5,0.6c-0.5,0.201-1,0.417-1.499,0.649c-0.169,0.1-0.344,0.209-0.527,0.326
		c-0.184,0.117-0.358,0.242-0.524,0.375c-0.199,0.167-0.4,0.317-0.6,0.45c-0.199,0.133-0.433,0.25-0.699,0.35
		c-0.434,0.167-0.884,0.3-1.35,0.4c-0.468,0.099-0.916,0.117-1.35,0.05c-0.232,0-0.441-0.066-0.624-0.201
		c-0.184-0.133-0.375-0.282-0.575-0.449c-0.067-0.067-0.144-0.133-0.225-0.201c-0.083-0.067-0.176-0.132-0.275-0.2l-0.45-0.3
		l0.549-0.351c0.066-0.032,0.125-0.066,0.176-0.1c0.05-0.033,0.108-0.065,0.174-0.099c0.201-0.066,0.4-0.183,0.601-0.35
		c1.465-1.132,2.949-2.116,4.449-2.95c1.5-0.832,2.948-1.581,4.348-2.249c0.6-0.299,1.216-0.566,1.849-0.799
		c0.633-0.233,1.25-0.465,1.85-0.701c0.566-0.199,1.116-0.399,1.649-0.599c0.532-0.2,1.066-0.433,1.6-0.7
		c1.299-0.566,2.599-1.017,3.898-1.351c1.301-0.332,2.583-0.631,3.849-0.899c0.399-0.066,0.799-0.15,1.201-0.25
		c0.399-0.1,0.798-0.183,1.199-0.25C93,5.633,93.167,5.6,93.334,5.6c0.166,0,0.333,0,0.5,0h0.6h0.8l0.1-0.049
		c0.033,0,0.059-0.008,0.076-0.025C95.425,5.509,95.451,5.5,95.482,5.5l0.051-0.05h0.3l0.05,0.05l0.1,0.1
		c0.034,0,0.051,0.017,0.051,0.05c0.365,0.034,0.707,0.067,1.024,0.1c0.316,0.034,0.641,0.067,0.975,0.101
		c0.633,0.067,1.274,0.134,1.924,0.2c0.65,0.066,1.291,0.15,1.924,0.25c2.331,0.367,3.966,1.516,4.899,3.448
		c0.166,0.268,0.273,0.551,0.323,0.851c0.051,0.3,0.109,0.6,0.176,0.899c0.033,0.167,0.058,0.309,0.075,0.426
		c0.017,0.117,0.042,0.242,0.075,0.375v0.099l-0.05,0.6l-0.052,0.051c-0.366,0.966-0.849,1.807-1.447,2.523
		c-0.601,0.717-1.235,1.392-1.9,2.024c-0.133,0.101-0.3,0.25-0.5,0.451c-0.268,0.267-0.566,0.475-0.9,0.625
		c-0.333,0.15-0.649,0.224-0.947,0.224c-0.302-0.033-0.593,0-0.876,0.099c-0.283,0.101-0.575,0.235-0.875,0.4
		c-0.2,0.067-0.4,0.143-0.6,0.225c-0.201,0.084-0.417,0.159-0.649,0.225c-0.567,0.134-1.2,0.367-1.901,0.7
		c-0.267,0.133-0.524,0.258-0.773,0.375c-0.251,0.118-0.508,0.208-0.775,0.274c-0.799,0.267-1.617,0.525-2.45,0.774
		c-0.834,0.25-1.649,0.493-2.449,0.725c-0.235,0.067-0.458,0.133-0.675,0.2c-0.216,0.067-0.458,0.133-0.724,0.2l1,0.999
		c0.065,0.101,0.14,0.208,0.223,0.326c0.083,0.117,0.159,0.224,0.226,0.324c0.066,0.133,0.167,0.3,0.3,0.5l1.049,1.35
		c0.167,0.167,0.316,0.351,0.451,0.551c0.132,0.199,0.282,0.384,0.449,0.549c0.167,0.233,0.334,0.45,0.5,0.649
		c0.167,0.201,0.333,0.418,0.5,0.649c0.101,0.136,0.408,0.451,0.926,0.952c0.515,0.499,1.073,1.04,1.674,1.624
		c0.6,0.582,1.149,1.132,1.648,1.648c0.501,0.518,0.801,0.843,0.9,0.976c0.101,0.1,0.208,0.208,0.326,0.324
		c0.116,0.117,0.225,0.242,0.325,0.375c0.099,0.133,0.208,0.268,0.324,0.399c0.118,0.133,0.242,0.269,0.375,0.4
		c0.101,0.134,0.217,0.366,0.351,0.7c0,0.1,0.032,0.183,0.101,0.25c0,0.032,0.007,0.058,0.024,0.075
		c0.017,0.017,0.024,0.041,0.024,0.074l0.1,0.199c0.201,0.2,0.398,0.392,0.599,0.574c0.2,0.184,0.383,0.376,0.551,0.576
		c0.231,0.2,0.457,0.408,0.675,0.625c0.216,0.217,0.441,0.44,0.675,0.675l1.549,1.549c0.101,0.133,0.208,0.25,0.325,0.35
		c0.116,0.101,0.226,0.217,0.325,0.352l0.151,0.148l-0.251,0.852L104.779,42.64z"/>
	<g>
		<path fill="#FFFFFF" d="M65.988,18.899c0.176,0.09,0.3,0.322,0.367,0.7c0.066,0.377,0.088,0.811,0.066,1.299
			c-0.022,0.489-0.123,0.989-0.299,1.499c-0.179,0.512-0.423,0.945-0.733,1.3c-1.422,0.399-2.645,0.666-3.666,0.799
			c-1.024,0.134-2.044,0.112-3.066-0.066c0.844-1.066,1.434-1.888,1.767-2.466c0.333-0.577,0.544-1.177,0.634-1.799
			c-1.067,0.4-2.356,1.156-3.866,2.266c-1.511,1.112-2.889,2.267-4.132,3.467c-0.044,0-0.067,0.022-0.067,0.066
			c-0.4,0.399-0.834,0.856-1.3,1.365c-0.466,0.511-0.889,1.023-1.266,1.533c-0.378,0.512-0.711,0.979-1,1.399
			c-0.29,0.423-0.457,0.745-0.5,0.968c0.267,0.223,0.889,0.299,1.866,0.232c0.977-0.066,2.122-0.211,3.433-0.434
			c1.31-0.221,2.709-0.51,4.199-0.865c1.488-0.355,2.899-0.676,4.231-0.969c1.333-0.286,2.5-0.52,3.499-0.696
			c1-0.178,1.677-0.246,2.034-0.201c0,0.044-0.024,0.066-0.066,0.066c-0.179,0.09-0.667,0.289-1.468,0.6
			c-0.799,0.311-1.744,0.678-2.832,1.101c-1.088,0.423-2.265,0.865-3.531,1.332c-1.267,0.466-2.456,0.9-3.566,1.3
			c-1.111,0.399-2.065,0.756-2.866,1.065c-0.799,0.312-1.289,0.49-1.466,0.534c-1.333,0.533-2.755,0.622-4.265,0.268
			c-1.778-0.355-3.156-1.245-4.133-2.667c-0.089-0.177-0.178-0.377-0.266-0.6c-0.09-0.222-0.179-0.444-0.267-0.666
			c-0.088-1.023,0.288-2.143,1.133-3.367c0.844-1.22,1.843-2.409,2.999-3.565c1.154-1.155,2.321-2.199,3.499-3.133
			c1.177-0.933,2.033-1.621,2.566-2.066c0.31-0.222,0.8-0.5,1.466-0.833c0.666-0.333,1.41-0.633,2.232-0.9
			c0.821-0.267,1.71-0.488,2.665-0.666c0.957-0.178,1.877-0.222,2.768-0.134c0.666,0.09,1.076,0.39,1.232,0.9
			c0.155,0.511,0.367,1.011,0.633,1.5C64.877,18.722,65.321,18.899,65.988,18.899z"/>
	</g>
</g>
</svg>
