<?xml version="1.0" encoding="utf-8"?>
<!-- Generator: Adobe Illustrator 16.0.3, SVG Export Plug-In . SVG Version: 6.00 Build 0)  -->
<!DOCTYPE svg PUBLIC "-//W3C//DTD SVG 1.1//EN" "http://www.w3.org/Graphics/SVG/1.1/DTD/svg11.dtd">
<svg version="1.1" id="Layer_1" xmlns="http://www.w3.org/2000/svg" xmlns:xlink="http://www.w3.org/1999/xlink" x="0px" y="0px"
	 width="160px" height="80px" viewBox="0 0 160 80" enable-background="new 0 0 160 80" xml:space="preserve">
<g>
	<g>
		<g>
			<path fill="#E1FF19" d="M27.25,29.25c34.65-2.532,69.443-3.216,104-7c1.585-0.174,1.602-2.675,0-2.5
				c-34.557,3.784-69.35,4.468-104,7C25.652,26.867,25.641,29.367,27.25,29.25L27.25,29.25z"/>
		</g>
	</g>
	<g>
		<g>
			<path fill="#E1FF19" d="M21.75,21.25c38.903-1.631,77.659-5.417,116.5-8c1.6-0.106,1.609-2.607,0-2.5
				c-38.841,2.583-77.597,6.369-116.5,8C20.144,18.817,20.137,21.317,21.75,21.25L21.75,21.25z"/>
		</g>
	</g>
</g>
<g>
	<g>
		<g>
			<path fill="#E1FF19" d="M27.25,70.5c34.55-3.889,69.286-6.393,104-8.25c1.604-0.086,1.611-2.586,0-2.5
				c-34.714,1.857-69.45,4.361-104,8.25C25.667,68.178,25.649,70.68,27.25,70.5L27.25,70.5z"/>
		</g>
	</g>
	<g>
		<g>
			<path fill="#E1FF19" d="M22.375,61.25c38.602-0.573,76.861-5.989,115.375-8c1.604-0.084,1.611-2.584,0-2.5
				c-38.514,2.011-76.773,7.427-115.375,8C20.764,58.773,20.762,61.273,22.375,61.25L22.375,61.25z"/>
		</g>
	</g>
</g>
</svg>
