<?xml version="1.0" encoding="utf-8"?>
<!-- Generator: Adobe Illustrator 16.0.3, SVG Export Plug-In . SVG Version: 6.00 Build 0)  -->
<!DOCTYPE svg PUBLIC "-//W3C//DTD SVG 1.1//EN" "http://www.w3.org/Graphics/SVG/1.1/DTD/svg11.dtd">
<svg version="1.1" id="Layer_1" xmlns="http://www.w3.org/2000/svg" xmlns:xlink="http://www.w3.org/1999/xlink" x="0px" y="0px"
	 width="115px" height="80px" viewBox="0 0 115 80" enable-background="new 0 0 115 80" xml:space="preserve">
<g>
	<g>
		<path fill="#E1FF19" d="M4.579,24.297c1.972-3.169,4.183-6.133,6.471-9.08c-0.589,0-1.178,0-1.768,0
			c3.432,3.202,4.894,7.812,8.333,11c0.638,0.591,1.476,0.404,1.963-0.253c3.481-4.691,5.801-10.104,9.805-14.414
			c-0.654-0.084-1.309-0.168-1.963-0.253c3.149,4.89,4.804,10.356,9.781,13.781c0.44,0.303,1.163,0.198,1.515-0.195
			c2.988-3.336,4.48-8.072,8.414-10.471c-0.57-0.149-1.14-0.299-1.71-0.448c2.363,3.95,4.065,8.143,7.195,11.586
			c0.466,0.513,1.292,0.453,1.768,0c3.407-3.246,5.938-7.358,8.527-11.253c-0.721,0-1.438,0-2.158,0
			c3.155,4.474,4.371,10.276,8.195,14.253c0.598,0.622,1.51,0.385,1.963-0.253c2.968-4.176,5.121-8.839,8.473-12.747
			c-0.654-0.084-1.309-0.168-1.963-0.253c2.409,3.94,4.385,8.119,7.861,11.253c0.476,0.429,1.308,0.537,1.768,0
			c3.456-4.034,6.043-8.736,10-12.333c-0.654-0.084-1.309-0.168-1.963-0.253c2.508,3.825,3.402,8.155,6.279,11.794
			c0.999,1.265,2.756-0.518,1.768-1.768c-2.712-3.431-3.512-7.663-5.889-11.289c-0.454-0.694-1.348-0.813-1.963-0.253
			c-3.973,3.61-6.533,8.287-10,12.333c0.589,0,1.179,0,1.768,0c-3.322-2.994-5.173-6.991-7.471-10.747
			c-0.395-0.646-1.424-0.881-1.963-0.253c-3.493,4.074-5.771,8.9-8.863,13.253c0.654-0.084,1.309-0.168,1.963-0.253
			c-3.639-3.784-4.792-9.476-7.805-13.747c-0.553-0.784-1.612-0.821-2.158,0c-2.479,3.727-4.879,7.643-8.137,10.747
			c0.589,0,1.178,0,1.768,0c-2.981-3.281-4.556-7.322-6.805-11.08c-0.344-0.576-1.124-0.806-1.71-0.448
			c-3.218,1.962-4.938,5.071-6.884,8.193c-2.705,4.338-8.046-8.3-9.406-10.412c-0.421-0.654-1.394-0.866-1.963-0.253
			c-4.154,4.471-6.584,10.053-10.195,14.92c0.654-0.084,1.309-0.168,1.963-0.253c-3.425-3.174-4.898-7.794-8.333-11
			c-0.45-0.42-1.339-0.552-1.768,0c-2.417,3.112-4.779,6.237-6.862,9.586C1.566,24.409,3.73,25.663,4.579,24.297L4.579,24.297z"/>
	</g>
</g>
<g>
	<g>
		<path fill="#E1FF19" d="M4.706,64.832c1.175-3.68,3.531-6.258,6.345-8.781c-0.589,0-1.178,0-1.768,0
			c3.61,2.831,5.944,6.787,8.138,10.747c0.358,0.646,1.462,0.888,1.963,0.253c3.761-4.771,7.381-9.509,10.195-14.92
			c-0.719,0-1.439,0-2.158,0c3.074,4.473,6.061,9,9.333,13.333c0.464,0.615,1.361,0.896,1.963,0.253
			c3.145-3.35,5.676-7.186,8.667-10.666c-0.589,0-1.178,0-1.768,0c2.83,3.385,5.062,7.03,6.805,11.08
			c0.33,0.768,1.437,0.754,1.963,0.253c3.455-3.284,5.794-7.505,9-11c-0.653-0.084-1.309-0.169-1.963-0.253
			c3.087,4.439,4.81,9.592,8,14c0.665,0.919,1.871,0.74,2.284-0.299c1.873-4.701,4.861-8.686,7.874-12.701
			c-0.763-0.1-1.522-0.199-2.284-0.299c1.441,4.646,4.314,8.41,7.987,11.552c0.528,0.453,1.241,0.494,1.768,0
			c3.955-3.719,7.286-8.013,10.195-12.586c-0.72,0-1.438,0-2.158,0c1.706,3.751,4.249,7.021,6.084,10.708
			c0.718,1.443,2.874,0.178,2.158-1.262c-1.835-3.688-4.378-6.957-6.084-10.708c-0.41-0.902-1.7-0.722-2.158,0
			c-2.8,4.401-6,8.503-9.805,12.08c0.589,0,1.179,0,1.768,0c-3.334-2.854-6.028-6.205-7.345-10.448
			c-0.346-1.111-1.648-1.146-2.284-0.299c-3.16,4.211-6.168,8.381-8.126,13.299c0.762-0.1,1.521-0.199,2.284-0.299
			c-3.19-4.409-4.912-9.561-8-14c-0.438-0.633-1.384-0.887-1.963-0.253c-3.206,3.495-5.546,7.716-9,11
			c0.654,0.084,1.309,0.169,1.963,0.253c-1.828-4.247-4.235-8.046-7.195-11.586c-0.414-0.496-1.351-0.484-1.768,0
			c-2.99,3.479-5.525,7.318-8.667,10.666c0.654,0.084,1.309,0.169,1.963,0.253c-3.271-4.333-6.259-8.86-9.333-13.333
			c-0.5-0.727-1.696-0.891-2.158,0c-2.718,5.225-6.168,9.8-9.805,14.414c0.654,0.084,1.309,0.169,1.963,0.253
			c-2.289-4.132-4.763-8.3-8.529-11.253c-0.559-0.438-1.213-0.497-1.768,0c-3.167,2.841-5.678,5.781-6.988,9.885
			C1.803,65.708,4.217,66.361,4.706,64.832L4.706,64.832z"/>
	</g>
</g>
</svg>
