<?xml version="1.0" encoding="utf-8"?>
<!-- Generator: Adobe Illustrator 16.0.3, SVG Export Plug-In . SVG Version: 6.00 Build 0)  -->
<!DOCTYPE svg PUBLIC "-//W3C//DTD SVG 1.1//EN" "http://www.w3.org/Graphics/SVG/1.1/DTD/svg11.dtd">
<svg version="1.1" id="Layer_1" xmlns="http://www.w3.org/2000/svg" xmlns:xlink="http://www.w3.org/1999/xlink" x="0px" y="0px"
	 width="115px" height="80px" viewBox="0 0 115 80" enable-background="new 0 0 115 80" xml:space="preserve">
<g>
	<g>
		<path fill="#DDE21E" d="M4.247,24.297c1.972-3.169,4.183-6.133,6.471-9.08c-0.589,0-1.178,0-1.768,0
			c3.432,3.202,4.894,7.812,8.333,11c0.638,0.591,1.476,0.403,1.963-0.253c3.481-4.691,5.801-10.105,9.805-14.415
			c-0.654-0.084-1.309-0.168-1.963-0.253c3.149,4.89,4.804,10.356,9.781,13.782c0.44,0.304,1.163,0.198,1.515-0.195
			c2.988-3.336,4.48-8.072,8.414-10.471c-0.57-0.149-1.14-0.299-1.71-0.448c2.363,3.95,4.065,8.142,7.195,11.585
			c0.466,0.514,1.292,0.452,1.768,0c3.408-3.245,5.938-7.357,8.527-11.252c-0.72,0-1.438,0-2.158,0
			c3.155,4.474,4.37,10.277,8.195,14.252c0.598,0.621,1.51,0.386,1.963-0.253c2.968-4.176,5.121-8.838,8.473-12.747
			c-0.654-0.084-1.309-0.168-1.963-0.253c2.409,3.94,4.383,8.119,7.861,11.252c0.477,0.43,1.307,0.536,1.768,0
			c3.466-4.024,6.029-8.75,10-12.333c-0.654-0.084-1.309-0.168-1.963-0.253c3.349,5.168,4.384,11.331,8.195,16.253
			c0.391,0.505,1.372,0.48,1.768,0c3.019-3.662,5.003-7.93,7.529-11.92c0.865-1.367-1.299-2.62-2.158-1.262
			c-2.406,3.8-4.263,7.925-7.139,11.415c0.589,0,1.179,0,1.768,0c-3.652-4.717-4.586-10.781-7.805-15.748
			c-0.452-0.699-1.348-0.808-1.963-0.253c-3.983,3.594-6.525,8.298-10,12.333c0.589,0,1.179,0,1.768,0
			c-3.322-2.994-5.174-6.99-7.471-10.747c-0.395-0.646-1.424-0.881-1.963-0.253c-3.493,4.074-5.771,8.9-8.863,13.252
			c0.654-0.084,1.309-0.169,1.963-0.253c-3.64-3.783-4.792-9.476-7.805-13.747c-0.553-0.784-1.613-0.821-2.158,0
			c-2.477,3.727-4.878,7.644-8.137,10.747c0.589,0,1.178,0,1.768,0c-2.981-3.28-4.556-7.322-6.805-11.08
			c-0.344-0.576-1.124-0.806-1.71-0.448c-3.218,1.962-4.938,5.071-6.884,8.193c-2.704,4.338-8.046-8.3-9.406-10.412
			c-0.421-0.654-1.394-0.866-1.963-0.253c-4.154,4.471-6.584,10.053-10.195,14.92c0.654-0.084,1.309-0.169,1.963-0.253
			c-3.425-3.175-4.897-7.795-8.333-11c-0.45-0.42-1.339-0.552-1.768,0c-2.417,3.112-4.779,6.237-6.862,9.585
			C1.234,24.408,3.398,25.662,4.247,24.297L4.247,24.297z"/>
	</g>
</g>
<g>
	<g>
		<path fill="#DDE21E" d="M4.706,64.832c1.175-3.679,3.531-6.258,6.345-8.781c-0.589,0-1.178,0-1.768,0
			c3.61,2.831,5.944,6.787,8.138,10.747c0.358,0.646,1.462,0.888,1.963,0.253c3.761-4.771,7.381-9.509,10.195-14.92
			c-0.719,0-1.439,0-2.158,0c3.074,4.473,6.061,9,9.333,13.333c0.464,0.615,1.361,0.895,1.963,0.253
			c3.145-3.35,5.676-7.186,8.667-10.666c-0.589,0-1.178,0-1.768,0c2.83,3.385,5.062,7.03,6.805,11.08
			c0.33,0.768,1.437,0.754,1.963,0.253c3.455-3.285,5.794-7.505,9-11c-0.654-0.084-1.309-0.169-1.963-0.253
			c3.087,4.439,4.809,9.591,8,14c0.665,0.919,1.871,0.74,2.284-0.299c1.873-4.701,4.861-8.685,7.874-12.701
			c-0.762-0.1-1.522-0.199-2.284-0.299c1.441,4.646,4.315,8.41,7.987,11.552c0.529,0.453,1.242,0.494,1.768,0
			c3.955-3.719,7.286-8.013,10.195-12.586c-0.72,0-1.438,0-2.158,0c2.115,4.936,5.04,9.481,7.334,14.333
			c0.33,0.699,1.465,0.835,1.963,0.253c2.781-3.248,5.073-6.877,8-10c1.102-1.175-0.663-2.946-1.768-1.768
			c-2.932,3.127-5.217,6.748-8,10c0.654,0.084,1.309,0.169,1.963,0.253c-2.294-4.852-5.219-9.397-7.334-14.333
			c-0.393-0.916-1.708-0.707-2.158,0c-2.8,4.401-6,8.503-9.805,12.08c0.589,0,1.179,0,1.768,0
			c-3.334-2.854-6.028-6.205-7.345-10.448c-0.345-1.111-1.648-1.146-2.284-0.299c-3.16,4.211-6.168,8.381-8.126,13.299
			c0.762-0.1,1.522-0.199,2.284-0.299c-3.191-4.409-4.912-9.561-8-14c-0.438-0.632-1.383-0.886-1.963-0.253
			c-3.206,3.495-5.546,7.716-9,11c0.654,0.084,1.309,0.169,1.963,0.253c-1.828-4.247-4.235-8.046-7.195-11.586
			c-0.414-0.496-1.351-0.484-1.768,0c-2.99,3.478-5.525,7.319-8.667,10.666c0.654,0.084,1.309,0.169,1.963,0.253
			c-3.271-4.333-6.259-8.86-9.333-13.333c-0.5-0.727-1.696-0.89-2.158,0c-2.718,5.225-6.168,9.8-9.805,14.414
			c0.654,0.084,1.309,0.169,1.963,0.253c-2.289-4.132-4.763-8.3-8.529-11.253c-0.559-0.438-1.213-0.497-1.768,0
			c-3.167,2.841-5.678,5.782-6.988,9.885C1.803,65.708,4.217,66.362,4.706,64.832L4.706,64.832z"/>
	</g>
</g>
</svg>
